# xmcd
#
# Track frame offsets:
#	150
#	25271
#	45914
#	65917
#	86377
#	105479
#	132248
#	151767
#	175388
#
# Disc length: 2606 seconds
#
# Revision: 0
# Processed by: cddbd v1.5.1PL2 Copyright (c) Steve Scherf et al.
# Submitted via: dBpowerAMP V4.0
#
DISCID=690a2c09
DTITLE=Hong Nhung - Nhu Canh Vac Bay
DYEAR=2006
DGENRE=Trinh Cong Son
TTITLE0=01 Toi Ru Em Ngu
TTITLE1=02 Doi Goi Em Biet Bao Lan
TTITLE2=03 Mot Coi Di Ve
TTITLE3=04 Nhin Nhung Mua Thu Di
TTITLE4=05 Nhu Canh Vac Bay
TTITLE5=06 Tuoi Da Buon
TTITLE6=07 Roi Nhu Da Ngay Ngo
TTITLE7=08 Bien Nho
TTITLE8=09 Nay Em Con Nho
EXTD=
EXTT0=
EXTT1=
EXTT2=
EXTT3=
EXTT4=
EXTT5=
EXTT6=
EXTT7=
EXTT8=
PLAYORDER=
